<svg xmlns="http://www.w3.org/2000/svg" viewBox="0 0 228.23 186.55"><defs><style>.cls-1{fill:#231f20;}</style></defs><g id="Layer_2" data-name="Layer 2"><g id="Layer_1-2" data-name="Layer 1"><path class="cls-1" d="M217.87,98.94q10.35-14.76,10.36-35.74,0-29.54-20.2-46.36T152.6,0H18.39V22.53H83.92V124.32q0,18.13-7.9,27.46T52.84,161.1Q30,161.1,15,139.6L0,157.22a57.66,57.66,0,0,0,22.53,19.29,67.84,67.84,0,0,0,30.31,6.87q28,0,42.34-15.16,13.62-14.35,14.33-42.09H152.6q4.14,0,11.4-.51l44.87,60.93L228.23,175l-39.89-54.51Q207.51,113.71,217.87,98.94Zm-66.05,5.18H109.56V22.53h42.26q24.6,0,37.56,10.49t13,30.18q0,19.68-13,30.3T151.82,104.12Z"/></g></g></svg>